<svg xmlns="http://www.w3.org/2000/svg" viewBox="0 0 512 512">
  <defs>
    <linearGradient id="bg2" x1="0%" y1="0%" x2="100%" y2="100%">
      <stop offset="0%" style="stop-color:#3B82F6"/>
      <stop offset="100%" style="stop-color:#1D4ED8"/>
    </linearGradient>
  </defs>
  <!-- Background -->
  <rect width="512" height="512" rx="110" fill="url(#bg2)"/>
  <!-- Keyboard base -->
  <rect x="80" y="280" width="352" height="140" rx="20" fill="rgba(255,255,255,0.2)" stroke="white" stroke-width="8"/>
  <!-- Keyboard keys -->
  <rect x="110" y="310" width="50" height="35" rx="6" fill="white"/>
  <rect x="175" y="310" width="50" height="35" rx="6" fill="white"/>
  <rect x="240" y="310" width="50" height="35" rx="6" fill="white"/>
  <rect x="305" y="310" width="50" height="35" rx="6" fill="white"/>
  <rect x="370" y="310" width="50" height="35" rx="6" fill="white"/>
  <rect x="140" y="360" width="230" height="35" rx="6" fill="white"/>
  <!-- Microphone icon above -->
  <circle cx="256" cy="160" r="60" fill="white"/>
  <rect x="236" y="110" width="40" height="70" rx="20" fill="#3B82F6"/>
  <path d="M220 155 v15 a36 36 0 0 0 72 0 v-15" stroke="#3B82F6" stroke-width="8" fill="none" stroke-linecap="round"/>
  <line x1="256" y1="200" x2="256" y2="220" stroke="#3B82F6" stroke-width="8" stroke-linecap="round"/>
</svg>
