<svg xmlns="http://www.w3.org/2000/svg" viewBox="0 0 512 512">
  <defs>
    <linearGradient id="bg4" x1="0%" y1="0%" x2="100%" y2="100%">
      <stop offset="0%" style="stop-color:#F59E0B"/>
      <stop offset="100%" style="stop-color:#D97706"/>
    </linearGradient>
  </defs>
  <!-- Background -->
  <rect width="512" height="512" rx="110" fill="url(#bg4)"/>
  <!-- Chat bubble -->
  <path d="M100 120 h312 a40 40 0 0 1 40 40 v180 a40 40 0 0 1 -40 40 h-180 l-80 70 v-70 h-52 a40 40 0 0 1 -40 -40 v-180 a40 40 0 0 1 40 -40z" fill="white"/>
  <!-- Waveform inside bubble -->
  <line x1="160" y1="260" x2="160" y2="220" stroke="#D97706" stroke-width="24" stroke-linecap="round"/>
  <line x1="210" y1="280" x2="210" y2="180" stroke="#D97706" stroke-width="24" stroke-linecap="round"/>
  <line x1="260" y1="290" x2="260" y2="170" stroke="#D97706" stroke-width="24" stroke-linecap="round"/>
  <line x1="310" y1="280" x2="310" y2="180" stroke="#D97706" stroke-width="24" stroke-linecap="round"/>
  <line x1="360" y1="260" x2="360" y2="220" stroke="#D97706" stroke-width="24" stroke-linecap="round"/>
</svg>
