<svg width="200" height="200" viewBox="0 0 200 200" fill="none" xmlns="http://www.w3.org/2000/svg">
<path d="M35.758 28.276L100 14L164.242 28.276C165.978 28.6619 167.531 29.6282 168.644 31.0155C169.757 32.4028 170.363 34.128 170.364 35.9065V113.987C170.363 121.709 168.456 129.312 164.812 136.12C161.168 142.928 155.899 148.732 149.473 153.015L100 186L50.5266 153.015C44.1021 148.732 38.8341 142.93 35.19 136.124C31.5458 129.317 29.6382 121.715 29.6364 113.995V35.9065C29.6367 34.128 30.2434 32.4028 31.3563 31.0155C32.4692 29.6282 34.0219 28.6619 35.758 28.276ZM107.818 80.4545V57.4691C107.817 56.641 107.554 55.8345 107.065 55.1659C106.577 54.4974 105.888 54.0012 105.1 53.749C104.311 53.4969 103.462 53.5016 102.677 53.7627C101.891 54.0238 101.208 54.5277 100.727 55.2018L73.1445 93.8236C72.7284 94.4081 72.4811 95.0959 72.4299 95.8116C72.3786 96.5273 72.5253 97.2433 72.8539 97.8812C73.1825 98.519 73.6804 99.0542 74.2929 99.4279C74.9054 99.8016 75.609 99.9995 76.3265 100H88.2727C89.3095 100 90.3038 100.412 91.0369 101.145C91.77 101.878 92.1818 102.872 92.1818 103.909V126.895C92.1825 127.723 92.4462 128.529 92.9348 129.198C93.4234 129.866 94.1117 130.362 94.9004 130.615C95.6891 130.867 96.5376 130.862 97.3234 130.601C98.1093 130.34 98.7919 129.836 99.2729 129.162L126.855 90.54C127.272 89.9555 127.519 89.2677 127.57 88.552C127.621 87.8363 127.475 87.1203 127.146 86.4824C126.817 85.8445 126.32 85.3094 125.707 84.9357C125.095 84.562 124.391 84.3641 123.673 84.3636H111.727C111.214 84.3636 110.706 84.2625 110.231 84.066C109.757 83.8696 109.326 83.5817 108.963 83.2187C108.6 82.8557 108.312 82.4247 108.116 81.9505C107.919 81.4762 107.818 80.9679 107.818 80.4545Z" fill="#2EE095"/>
</svg>
