<svg width="200" height="200" viewBox="0 0 200 200" fill="none" xmlns="http://www.w3.org/2000/svg">
<path d="M181.827 99.7738C181.107 99.7801 180.394 99.6442 179.727 99.3741C179.06 99.1039 178.452 98.7048 177.94 98.1996C177.427 97.6944 177.02 97.093 176.74 96.4299C176.461 95.7668 176.315 95.055 176.311 94.3354V75.7793C176.39 72.7883 178.837 70.4055 181.828 70.4055C184.82 70.4055 187.267 72.7885 187.346 75.7793V94.3629C187.341 95.0822 187.195 95.7935 186.915 96.4561C186.635 97.1188 186.227 97.7197 185.715 98.2246C185.203 98.7297 184.596 99.1289 183.93 99.3994C183.263 99.67 182.55 99.8066 181.831 99.8014L181.827 99.7738ZM162.928 115.262C162.209 115.268 161.495 115.132 160.828 114.862C160.161 114.592 159.554 114.193 159.041 113.688C158.529 113.182 158.121 112.581 157.842 111.918C157.562 111.255 157.416 110.543 157.412 109.823V60.2949C157.491 57.3047 159.938 54.9217 162.93 54.9217C165.921 54.9217 168.369 57.3049 168.448 60.2949V109.839C168.444 110.559 168.298 111.27 168.019 111.933C167.739 112.597 167.331 113.198 166.819 113.703C166.306 114.208 165.699 114.607 165.032 114.877C164.365 115.148 163.652 115.284 162.932 115.278L162.928 115.262ZM105.456 146.288V166.728H120.951C121.952 166.648 122.956 166.846 123.851 167.301C124.746 167.756 125.498 168.449 126.023 169.305C126.548 170.161 126.826 171.145 126.826 172.149C126.826 173.153 126.548 174.137 126.023 174.993C125.498 175.849 124.746 176.543 123.851 176.997C122.956 177.452 121.952 177.651 120.951 177.571H78.9246C77.9238 177.651 76.9203 177.452 76.0252 176.998C75.1301 176.543 74.3783 175.849 73.8531 174.993C73.3282 174.137 73.0504 173.153 73.0504 172.149C73.0504 171.145 73.3282 170.161 73.8531 169.305C74.3784 168.449 75.1302 167.756 76.0253 167.301C76.9204 166.846 77.9238 166.648 78.9246 166.728H94.4238V146.288C70.7279 143.887 52.2217 126.275 52.2217 104.952V97.7074C52.2217 94.6631 54.69 92.1955 57.7344 92.1955C60.7787 92.1955 63.2461 94.6631 63.2461 97.7074V104.956C63.2461 121.935 79.7135 135.741 99.9402 135.741C120.167 135.741 136.622 121.935 136.622 104.956V97.7074C136.701 94.7172 139.149 92.3342 142.14 92.3342C145.131 92.3342 147.579 94.7174 147.658 97.7074V104.956C147.658 126.278 129.183 143.891 105.456 146.288ZM99.9402 126.865C82.9371 126.726 69.2553 112.85 69.357 95.8469V53.1637C69.2332 42.1555 75.0342 31.9301 84.5471 26.3902C94.0602 20.8508 105.816 20.8508 115.329 26.3902C124.842 31.9301 130.643 42.1557 130.519 53.1637V95.8313C130.621 112.833 116.941 126.708 99.9402 126.85V126.865ZM36.9516 115.262C36.2327 115.267 35.5199 115.13 34.8539 114.859C34.188 114.589 33.5819 114.189 33.0703 113.684C32.5588 113.179 32.1518 112.578 31.8727 111.916C31.5935 111.253 31.4477 110.542 31.4436 109.823V60.2949C31.4436 57.2506 33.9119 54.783 36.9563 54.783C40.0006 54.783 42.468 57.2506 42.468 60.2949V109.839C42.4639 110.559 42.3179 111.27 42.0384 111.933C41.7588 112.597 41.3512 113.198 40.8389 113.703C40.3262 114.208 39.7191 114.607 39.0521 114.877C38.3851 115.148 37.6714 115.284 36.9518 115.278L36.9516 115.262ZM18.0537 99.7738C15.0377 99.7998 12.5693 97.3789 12.5375 94.3629V75.7793C12.5405 75.0594 12.6857 74.3472 12.9649 73.6836C13.2442 73.0201 13.6518 72.4183 14.1645 71.9128C14.6772 71.4074 15.2847 71.0084 15.9522 70.7386C16.6196 70.4689 17.3338 70.3337 18.0537 70.341C18.7735 70.3338 19.4876 70.469 20.1549 70.7388C20.8223 71.0086 21.4297 71.4077 21.9422 71.9131C22.4549 72.4184 22.8627 73.0202 23.1419 73.6837C23.4212 74.3472 23.5664 75.0594 23.5693 75.7793V94.3629C23.5652 95.0825 23.4192 95.7942 23.1396 96.4573C22.8601 97.1203 22.4524 97.7217 21.94 98.227C21.4276 98.7321 20.8206 99.1312 20.1537 99.4013C19.4868 99.6715 18.7732 99.8074 18.0537 99.8014V99.7738Z" fill="#6861F1"/>
</svg>
