<svg width="200" height="200" viewBox="0 0 200 200" fill="none" xmlns="http://www.w3.org/2000/svg">
<path d="M33.3333 125C35.5435 125 37.6631 125.878 39.2259 127.441C40.7887 129.004 41.6667 131.123 41.6667 133.333V141.667C41.6653 145.871 43.2534 149.921 46.1125 153.005C48.9716 156.088 52.8904 157.976 57.0833 158.292L58.3333 158.333H75C77.2099 158.334 79.3292 159.212 80.8917 160.775C82.4543 162.337 83.3321 164.457 83.3321 166.667C83.3321 168.877 82.4543 170.996 80.8917 172.559C79.3292 174.122 77.2099 175 75 175H58.3333C49.4931 174.999 41.0153 171.487 34.7643 165.236C28.5134 158.985 25.0011 150.507 25 141.667V133.333C25 131.123 25.878 129.004 27.4408 127.441C29.0036 125.878 31.1232 125 33.3333 125Z" fill="#3BD8FF"/>
<path d="M141.3 95.8333C142.967 95.8331 144.596 96.3328 145.976 97.268C147.356 98.2031 148.424 99.5307 149.042 101.079L175.842 168.246C176.093 168.878 176.187 169.562 176.113 170.238C176.039 170.915 175.801 171.563 175.419 172.126C175.037 172.689 174.523 173.15 173.922 173.469C173.321 173.788 172.651 173.954 171.971 173.954H163.888C163.044 173.954 162.221 173.699 161.526 173.221C160.831 172.744 160.298 172.066 159.996 171.279L154.225 156.208H123.1L117.671 171.208C117.38 172.014 116.848 172.71 116.147 173.202C115.446 173.694 114.61 173.958 113.754 173.958H106.088C105.41 173.959 104.742 173.794 104.143 173.478C103.543 173.163 103.03 172.705 102.647 172.146C102.264 171.587 102.023 170.943 101.945 170.27C101.867 169.597 101.955 168.915 102.2 168.283L128.263 101.154C128.87 99.5877 129.936 98.2414 131.322 97.2919C132.708 96.3424 134.349 95.834 136.029 95.8333H141.3ZM127.929 143.05H149.179L138.45 114.062V114.054L127.929 143.054V143.05ZM57.9709 20.875C64.7 20.875 66.1125 25.0917 66.1125 28.6333V35.9625H85.2542C95.4459 35.9625 99.9958 40.6875 99.9958 51.2542V73.0458C99.9958 83.6917 95.4333 88.4417 85.2542 88.4417H66.1292V106.667C66.4042 110.717 63.4792 114.242 59.6 114.533C59.1834 114.567 58.7584 114.554 58.3417 114.508C54.4833 115.05 50.9334 112.229 50.4084 108.204C50.3406 107.69 50.3253 107.171 50.3625 106.654V88.425H31.4042C21.2125 88.4292 16.6667 83.6667 16.6667 73.0375V51.25C16.6667 40.6667 21.2292 35.95 31.4042 35.95H50.3625V28.6292C50.05 24.6583 52.8875 21.1792 56.6875 20.8542C57.115 20.822 57.5446 20.829 57.9709 20.875ZM33.8125 51.4667C32.3792 51.4667 32.25 51.6083 32.25 53.1083V71.2625C32.25 72.7708 32.3792 72.9167 33.8125 72.9167H50.3625V51.4667H33.8125ZM66.125 51.4625V72.9125H82.8708C84.2667 72.9125 84.4459 72.725 84.4459 71.275V53.1083C84.4459 51.65 84.2667 51.4625 82.8708 51.4625H66.125Z" fill="#3BD8FF"/>
<path d="M141.667 25C150.507 25 158.986 28.5119 165.237 34.7631C171.488 41.0143 175 49.4928 175 58.3333V66.6667C175 68.8766 174.122 70.9959 172.559 72.5584C170.996 74.1209 168.877 74.9987 166.667 74.9987C164.457 74.9987 162.337 74.1209 160.775 72.5584C159.212 70.9959 158.334 68.8766 158.333 66.6667V58.3333C158.33 53.9141 156.573 49.6768 153.448 46.5519C150.323 43.427 146.086 41.67 141.667 41.6667H125C122.79 41.6663 120.671 40.7882 119.108 39.2254C117.546 37.6627 116.668 35.5433 116.668 33.3333C116.668 31.1234 117.546 29.004 119.108 27.4412C120.671 25.8785 122.79 25.0003 125 25H141.667Z" fill="#3BD8FF"/>
</svg>
